<?xml version="1.0" encoding="iso-8859-1"?>
<!-- Generator: Adobe Illustrator 19.0.0, SVG Export Plug-In . SVG Version: 6.00 Build 0)  -->
<svg version="1.1" id="Capa_1" xmlns="http://www.w3.org/2000/svg" xmlns:xlink="http://www.w3.org/1999/xlink" x="0px" y="0px"
	 viewBox="0 0 480 480" style="enable-background:new 0 0 480 480;" xml:space="preserve">
<g>
	<g>
		<path fill="white" d="M472,0H8C3.582,0,0,3.582,0,8v464c0,4.418,3.582,8,8,8h464c4.418,0,8-3.582,8-8V8C480,3.582,476.418,0,472,0z M464,464H16
			V16h448V464z"/>
	</g>
</g>
<g>
	<g>
		<path fill="white" d="M168,384h-24c-22.08-0.026-39.974-17.92-40-40V187.312l26.344,26.344c3.178,3.069,8.243,2.981,11.312-0.197
			c2.994-3.1,2.994-8.015,0-11.115l-40-40c-3.124-3.123-8.188-3.123-11.312,0l-40,40c-3.069,3.178-2.981,8.243,0.197,11.312
			c3.1,2.994,8.015,2.994,11.115,0L88,187.312V344c0.035,30.913,25.087,55.965,56,56h24c4.418,0,8-3.582,8-8S172.418,384,168,384z"
			/>
	</g>
</g>
<g>
	<g>
		<path fill="white" d="M96,48c-26.51,0-48,21.49-48,48c0.026,26.499,21.501,47.974,48,48c26.51,0,48-21.49,48-48S122.51,48,96,48z M96,128
			c-17.673,0-32-14.327-32-32s14.327-32,32-32s32,14.327,32,32S113.673,128,96,128z"/>
	</g>
</g>
<g>
	<g>
		<path fill="white" d="M384,48c-26.51,0-48,21.49-48,48c0.026,26.499,21.501,47.974,48,48c26.51,0,48-21.49,48-48S410.51,48,384,48z M384,128
			c-17.673,0-32-14.327-32-32s14.327-32,32-32c17.673,0,32,14.327,32,32S401.673,128,384,128z"/>
	</g>
</g>
<g>
	<g>
		<path fill="white" d="M272,32h-64c-4.418,0-8,3.582-8,8v64c0,4.418,3.582,8,8,8h64c4.418,0,8-3.582,8-8V40C280,35.582,276.418,32,272,32z
			 M264,96h-48V48h48V96z"/>
	</g>
</g>
<g>
	<g>
		<path fill="white" d="M272,128h-64c-4.418,0-8,3.582-8,8v64c0,4.418,3.582,8,8,8h64c4.418,0,8-3.582,8-8v-64C280,131.582,276.418,128,272,128z
			 M264,192h-48v-48h48V192z"/>
	</g>
</g>
<g>
	<g>
		<path fill="white" d="M240,344c-26.51,0-48,21.49-48,48c0.026,26.499,21.501,47.974,48,48c26.51,0,48-21.49,48-48
			C288,365.49,266.51,344,240,344z M240,424c-17.673,0-32-14.327-32-32c0-17.673,14.327-32,32-32c17.673,0,32,14.327,32,32
			C272,409.673,257.673,424,240,424z"/>
	</g>
</g>
<g>
	<g>
		<path fill="white" d="M272,224h-64c-4.418,0-8,3.582-8,8v64c0,4.418,3.582,8,8,8h64c4.418,0,8-3.582,8-8v-64C280,227.582,276.418,224,272,224z
			 M264,288h-48v-48h48V288z"/>
	</g>
</g>
<g>
	<g>
		<path fill="white" d="M429.656,202.344l-40-40c-3.124-3.123-8.188-3.123-11.312,0l-40,40c-3.069,3.178-2.982,8.242,0.196,11.312
			c3.1,2.994,8.015,2.994,11.116,0L376,187.312V344c-0.026,22.08-17.92,39.974-40,40h-24c-4.418,0-8,3.582-8,8s3.582,8,8,8h24
			c30.913-0.035,55.965-25.087,56-56V187.312l26.344,26.344c3.178,3.069,8.242,2.982,11.312-0.196
			C432.65,210.359,432.65,205.444,429.656,202.344z"/>
	</g>
</g>
<g>
</g>
<g>
</g>
<g>
</g>
<g>
</g>
<g>
</g>
<g>
</g>
<g>
</g>
<g>
</g>
<g>
</g>
<g>
</g>
<g>
</g>
<g>
</g>
<g>
</g>
<g>
</g>
<g>
</g>
</svg>
